<svg id="Capa_1" enable-background="new 0 0 512 512" height="512" viewBox="0 0 512 512" width="512"
    xmlns="http://www.w3.org/2000/svg">
    <g>
        <path d="m148.169 273.057c-11.186 8.783-25.17 13.618-39.394 13.618-43.414 0-78.733-35.319-78.733-78.732v-122.195c0-6.14 4.995-11.135 11.135-11.135s11.135 4.995 11.135 11.135v15.776h30.043v-15.776c0-22.706-18.472-41.178-41.178-41.178-22.704 0-41.177 18.472-41.177 41.178v122.195c0 59.979 48.796 108.775 108.776 108.775 15.541 0 30.881-3.933 44.49-11.246l13.006-47.37z"/>
        <path d="m512 207.942v-122.194c0-22.706-18.472-41.178-41.178-41.178s-41.178 18.472-41.178 41.178v15.776h30.043v-15.776c0-6.14 4.995-11.135 11.135-11.135s11.135 4.995 11.135 11.135v122.195c0 43.413-35.319 78.732-78.733 78.732-14.224 0-28.208-4.835-39.394-13.618l-18.174-15.014 12.729 47.248c13.695 7.433 29.167 11.427 44.839 11.427 59.98-.001 108.776-48.797 108.776-108.776z"/>
        <path d="m311.991 256.843c5.19-8.508 30.301-43.629 37.775-52.322 19.28-22.425 29.898-51.08 29.898-80.686 0-33.404-13.1-64.718-36.886-88.175-23.782-23.453-55.306-36.117-88.709-35.647-67.011.934-121.772 56.227-122.072 123.256-.131 29.211 10.105 57.617 28.821 79.984 8.049 9.619 33.978 45.629 39.083 53.93l-41.962 131.317c-4.903 15.345-19.021 25.654-35.13 25.654h-3.35c-18.489 0-33.53-15.041-33.53-33.53 0-23.69-19.273-42.963-42.963-42.964h-.001c-11.476 0-22.265 4.469-30.38 12.583-8.116 8.115-12.585 18.904-12.585 30.381v14.08h30.043v-14.08c0-3.452 1.344-6.697 3.785-9.137 2.441-2.441 5.686-3.785 9.138-3.785 7.125 0 12.922 5.797 12.922 12.922 0 35.054 28.518 63.573 63.573 63.573h3.35c29.231 0 54.849-18.708 63.747-46.552l27.714-86.73v159.627c0 6.295-5.121 11.416-11.416 11.416s-11.416-5.121-11.416-11.416v-16.918h-30.043v16.918c0 22.86 18.598 41.458 41.459 41.458 22.86 0 41.458-18.598 41.458-41.458v-176.724h23.034v176.724c0 22.86 18.598 41.458 41.459 41.458 22.86 0 41.458-18.598 41.458-41.458v-16.918h-30.043v16.918c0 6.295-5.121 11.416-11.416 11.416s-11.416-5.121-11.416-11.416v-160.696l28.055 87.798c8.897 27.845 34.515 46.552 63.747 46.552h3.349c35.054 0 63.573-28.518 63.573-63.573 0-7.125 5.797-12.922 12.922-12.922 3.452 0 6.697 1.344 9.138 3.785 2.44 2.44 3.785 5.685 3.785 9.137v14.08h30.041v-14.08c0-11.477-4.469-22.266-12.584-30.381-8.116-8.115-18.905-12.584-30.382-12.583-23.69.001-42.963 19.274-42.963 42.964 0 18.489-15.041 33.53-33.53 33.53h-3.349c-16.109 0-30.227-10.31-35.13-25.654zm-40.468-119.531h30.043v39.291h-30.043zm-61.089 0h30.043v39.291h-30.043z"/>
    </g>
</svg>