<svg id="Layer_1" enable-background="new 0 0 512 512" height="512" viewBox="0 0 512 512" width="512" xmlns="http://www.w3.org/2000/svg"><g><path d="m245 448h22c2.761 0 5-2.239 5-5v-70c0-2.761-2.239-5-5-5h-22c-2.761 0-5 2.239-5 5v70c0 2.761 2.239 5 5 5z"/><path d="m208 443v-180.893c0-5.331-7.174-6.934-9.519-2.147-4.149 8.473-6.481 17.989-6.481 28.04v79.551c0 8.618-6.626 16.031-15.235 16.431-9.188.428-16.765-6.888-16.765-15.982v-80c0-39.58 24.082-73.64 58.359-88.31 3.099-1.327 3.974-5.337 1.736-7.859-7.521-8.48-12.095-19.627-12.095-31.831v-7.196c0-26.286 20.798-48.301 47.079-48.796 26.89-.506 48.921 21.216 48.921 47.992v8c0 12.204-4.574 23.351-12.095 31.831-2.237 2.522-1.363 6.532 1.736 7.859 34.277 14.67 58.359 48.73 58.359 88.31v79.551c0 8.618-6.626 16.031-15.235 16.431-9.188.428-16.765-6.888-16.765-15.982v-80c0-10.051-2.332-19.567-6.481-28.04-2.345-4.788-9.519-3.184-9.519 2.147v180.893c0 2.761 2.239 5 5 5h150c2.761 0 5-2.239 5-5v-233.201c0-114.345-93.546-209.74-207.891-209.799-114.74-.059-208.109 93.274-208.109 208v235c0 2.761 2.239 5 5 5h150c2.761 0 5-2.239 5-5z"/><path d="m496 480c-25.306 0-453.18 0-480 0-8.84 0-16 7.16-16 16s7.16 16 16 16h480c8.84 0 16-7.16 16-16s-7.16-16-16-16z"/></g></svg>